<?xml version="1.0" encoding="utf-8"?>
<!-- Generator: Adobe Illustrator 19.1.0, SVG Export Plug-In . SVG Version: 6.00 Build 0)  -->
<svg version="1.1" id="Layer_1" xmlns="http://www.w3.org/2000/svg" xmlns:xlink="http://www.w3.org/1999/xlink" x="0px" y="0px"
	 viewBox="51 19.2 174 35.8" style="enable-background:new 51 19.2 174 35.8;" xml:space="preserve">
<g>
	<path d="M168.2,28.5c-1.7,0-3.1,1.3-3.1,2.9v17.1h-21l-2.6-4.7L137,36V22.7c0-1.6-1.4-2.9-3.1-2.9h-15.2c-1.7,0-3.1,1.3-3.1,2.9
		v25.9h-2.9l-7.1-12.5V22.7c0-1.6-1.4-2.9-3.1-2.9H87.3c-1.7,0-3.1,1.3-3.1,2.9v25.9h-4.8L72.7,22c-0.3-1.3-1.6-2.2-3-2.2h-8.3
		c-1.4,0-2.6,0.9-3,2.2l-7.3,29.3c-0.4,1.6,0.6,3.2,2.3,3.5c0.1,0,0.2,0,0.3,0c0.1,0,0.3,0,0.4,0c0.2,0,0.4,0,0.5,0
		c1.2-0.2,2.2-1,2.5-2.2l6.8-27.1h3.5L74,52.2c0.3,1.3,1.6,2.3,3,2.3h10.3c1.7,0,3.1-1.3,3.1-2.9v-26h9.2v11.2c0,0.5,0.1,1,0.4,1.4
		l8.3,14.7c0.5,0.9,1.6,1.5,2.7,1.5h7.8c1.7,0,3.1-1.3,3.1-2.9V25.6h9.2v11.2c0,0.5,0.1,1,0.4,1.4l8.3,14.7c0.4,0.7,1.1,1.2,1.9,1.4
		c0.3,0.1,0.5,0.1,0.8,0.1h25.9c1.7,0,3.1-1.3,3.1-2.9v-20C171.3,29.8,169.9,28.5,168.2,28.5z"/>
	<path d="M222,19.3c-1.7-0.3-3.3,0.7-3.6,2.3l-5.5,27h-1.6L206,22.1c-0.3-1.4-1.5-2.4-3-2.4h-5.8c-1.5,0-2.7,1-3,2.4l-5.4,26.4h-1.6
		l-5.4-26.4c-0.3-1.4-1.5-2.4-3-2.4h-2.5h-26.7c-1.7,0-3.1,1.3-3.1,2.9v20c0,1.6,1.4,2.9,3.1,2.9c1.7,0,3.1-1.3,3.1-2.9v-17h23.6
		v0.1l5.3,26.4c0.3,1.4,1.5,2.4,3,2.4h6.7c1.5,0,2.7-1,3-2.4l5.4-26.4h0.8l5.4,26.4c0.3,1.4,1.5,2.4,3,2.4h6.7c1.5,0,2.7-1,3-2.4
		l5.4-27.4v-4.1C223.6,19.9,222.9,19.4,222,19.3z"/>
</g>
</svg>
