<?xml version="1.0" encoding="utf-8"?>
<!-- Generator: Adobe Illustrator 19.1.0, SVG Export Plug-In . SVG Version: 6.00 Build 0)  -->
<svg version="1.1" id="Layer_1" xmlns="http://www.w3.org/2000/svg" xmlns:xlink="http://www.w3.org/1999/xlink" x="0px" y="0px"
	 viewBox="0 0 72 72" style="enable-background:new 0 0 72 72;" xml:space="preserve">
<style type="text/css">
	.st0{clip-path:url(#SVGID_2_);enable-background:new    ;}
	.st1{clip-path:url(#SVGID_4_);}
	.st2{clip-path:url(#SVGID_6_);}
	.st3{clip-path:url(#SVGID_8_);fill:#FFFFFF;}
</style>
<g>
	<defs>
		<rect id="SVGID_1_" x="7.6" y="1" width="57.9" height="70"/>
	</defs>
	<clipPath id="SVGID_2_">
		<use xlink:href="#SVGID_1_"  style="overflow:visible;"/>
	</clipPath>
	<g class="st0">
		<g>
			<defs>
				<rect id="SVGID_3_" x="7.6" y="-0.3" width="59.2" height="72.7"/>
			</defs>
			<clipPath id="SVGID_4_">
				<use xlink:href="#SVGID_3_"  style="overflow:visible;"/>
			</clipPath>
			<g class="st1">
				<defs>
					<path id="SVGID_5_" d="M63.2,34.8c-2.5-2.2-6.6-2-9,0.3c-1.7,1.7-3.5,3.4-5.2,5.1c-0.1,0.1-0.2,0.2-0.4,0.4v-0.9
						c0-7.5,0-23,0-30.5c0-2.4-1.1-4.2-3.3-5.3C43.1,3,41,3.2,39.1,4.5c-0.2,0.1-0.3,0.2-0.5,0.4c-2.3-5.1-9.1-5.2-11.4,0
						c-0.2-0.1-0.3-0.2-0.5-0.3c-3.6-2.5-8.4-0.6-9.3,3.6c-0.1,0.5-0.1,1.1-0.1,1.6c0,1.4,0,2.9,0,4.4c-0.2-0.1-0.3-0.2-0.5-0.2
						c-4.3-2.4-9.2,0.4-9.2,5.3c0,7.9,0,23.8,0,31.7c0,3.4,0.7,6.6,2.4,9.5c3.7,6.4,9.2,10.1,16.7,10.6c0.7,0.1,1.4,0.1,2,0.1
						c0,0,0.1,0,0.1,0c5,0,9.2-2.7,10.8-6.6c0.5-1.1,0.7-2.2,0.8-3.4c0-0.1,0-0.3,0-0.4v-0.1c0-4.8-3.4-8.3-8.2-9.4
						c-0.8-0.2-1.7-0.3-2.7-0.3c-0.1,0-0.2,0-0.3,0c-1.5,0-2.8,0.2-4,0.5c-1.1,0.3-2.2,0.7-3.2,1.2l0.8-12H38c0.6,0,1.2-0.5,1.2-1.1
						c0-0.6-0.5-1.1-1.2-1.1H22c-0.6,0-1.2,0.4-1.3,1.3l-0.8,13.2c0,0.7,0.1,1.3,0.6,1.6c0.4,0.2,0.8,0.4,1.3,0.4
						c0.4,0,1.2-0.5,2.4-0.9c1-0.4,2.4-0.8,4.2-0.8c0.2,0,0.4,0,0.6,0c0.7,0,1.3,0.1,1.9,0.2c4.2,0.7,6.9,3.5,6.9,7.5v0.1
						c-0.3,1.6-0.6,3-1.2,4.1c-0.7,1.4-1.7,2.4-3.1,3c-0.8,0.4-1.8,0.6-2.9,0.7c-0.1,0-0.6,0-1.2,0.1c-0.4,0-0.9,0-1.2,0.1
						c-0.1,0-0.2,0-0.3,0l0,0c-0.2,0-0.3,0-0.5,0c0,0-0.1,0-0.1,0c-0.5,0-0.9,0-1.4-0.1c-0.1,0-0.1,0-0.2,0c-0.1,0-0.3,0-0.4-0.1
						c0,0,0,0-0.1,0c-0.3,0-0.6-0.1-0.9-0.1c-0.1,0-0.1,0-0.2,0c-0.1,0-0.3-0.1-0.4-0.1c-0.1,0-0.1,0-0.2-0.1
						C23.4,68,23.2,68,23,67.9c-0.1,0-0.2,0-0.2-0.1c-0.1,0-0.2-0.1-0.4-0.1c-0.1,0-0.2-0.1-0.3-0.1c-0.2-0.1-0.3-0.1-0.5-0.2
						c-0.1,0-0.3-0.1-0.4-0.1c-0.1,0-0.2-0.1-0.3-0.1c-0.1,0-0.2-0.1-0.3-0.1c-0.1,0-0.2-0.1-0.3-0.1c-0.2-0.1-0.4-0.2-0.5-0.3
						c-0.1,0-0.2-0.1-0.2-0.1c-0.1-0.1-0.2-0.1-0.4-0.2c-0.1,0-0.2-0.1-0.2-0.1c-0.2-0.1-0.3-0.2-0.5-0.3c-0.1,0-0.1-0.1-0.2-0.1
						c-0.1-0.1-0.3-0.2-0.4-0.3c-0.1,0-0.1-0.1-0.2-0.1c-0.1-0.1-0.3-0.2-0.4-0.3c0,0-0.1-0.1-0.1-0.1c-0.2-0.1-0.4-0.3-0.5-0.4
						c-0.1,0-0.1-0.1-0.2-0.1c-0.1-0.1-0.3-0.2-0.4-0.4c0,0-0.1-0.1-0.1-0.1c-0.2-0.2-0.3-0.3-0.5-0.5c0,0-0.1-0.1-0.1-0.1
						c-0.1-0.1-0.3-0.3-0.4-0.4c0,0-0.1-0.1-0.1-0.1c-0.2-0.2-0.3-0.4-0.5-0.5c0,0-0.1-0.1-0.1-0.1c-0.1-0.2-0.3-0.3-0.4-0.5
						c0-0.1-0.1-0.1-0.1-0.2c-0.2-0.2-0.3-0.4-0.4-0.6c-1.2-1.7-2-3.5-2.5-5.3c-0.2-0.8-0.4-1.7-0.5-2.6c-0.1-0.7-0.1-1.3-0.1-2
						c0-1.3,0-2.7,0-4.3c0-0.6,0-1.3,0-2c0-1.3,0-2.8,0-4.2c0-1.1,0-2.2,0-3.3c0-1.5,0-3,0-4.5c0-2.2,0-4.5,0-6.5v0c0-1,0-2,0-3
						c0-0.6,0-1.2,0-1.8c0-0.6,0-1.1,0-1.7c0-0.3,0-0.5,0-0.8c0-0.5,0.1-1,0.3-1.4c0.1-0.2,0.2-0.4,0.3-0.6c0.1-0.1,0.1-0.2,0.2-0.3
						c0.1-0.2,0.3-0.3,0.5-0.5c0.2-0.1,0.4-0.3,0.6-0.4c0.3-0.2,0.6-0.3,1-0.4c0.2,0,0.5-0.1,0.7-0.1c0.3,0,0.5,0,0.7,0.1
						c0.2,0,0.5,0.1,0.7,0.2c0.3,0.1,0.6,0.3,0.9,0.5c0.8,0.6,1.3,1.6,1.3,2.8c0,3.9,0,15.8,0,19.8c0,0.6,0.2,1,0.5,1.2
						c0,0,0.1,0,0.1,0.1c0,0,0.1,0,0.2,0.1c0.1,0,0.1,0,0.2,0c0,0,0,0,0,0c0.1,0,0.2,0,0.3,0c0.1,0,0.1,0,0.2,0c0.1,0,0.2,0,0.2-0.1
						c0.1,0,0.1-0.1,0.2-0.1c0.1-0.1,0.2-0.1,0.3-0.3c0.2-0.2,0.3-0.5,0.3-0.9c0-0.8,0-1.5,0-2.3v0c0-0.8,0-1.5,0-2.3
						c0-3.1,0-8.8,0-14.2c0-1.8,0-3.5,0-5.2v-1.6c0-0.5,0-1,0-1.4V9.3c0-0.1,0-0.3,0-0.4c0-0.4,0.1-0.7,0.3-1
						c0.1-0.2,0.2-0.4,0.3-0.6c0.3-0.5,0.7-0.9,1.3-1.1c0.3-0.2,0.6-0.3,1-0.4c0.2,0,0.5-0.1,0.7-0.1c0.9,0,1.7,0.3,2.3,0.8
						c0.1,0.1,0.2,0.1,0.3,0.2C26,7,26.3,7.3,26.4,7.6c0.3,0.5,0.4,1.1,0.4,1.7c0,0.9,0,1.9,0,3.1v0c0,0.5,0,1,0,1.5v0.8
						c0,0.5,0,1.1,0,1.6c0,0.6,0,1.1,0,1.7c0,0.9,0,1.8,0,2.6v1.8c0,2.1,0,4.1,0,6V30c0,1.5,0,2.8,0,3.8c0,0.1,0,0.2,0,0.3
						c0,0.2,0.1,0.3,0.1,0.4c0,0.1,0.1,0.2,0.2,0.3c0.1,0.1,0.2,0.2,0.3,0.2c0.1,0,0.2,0.1,0.3,0.1c0.2,0,0.3,0,0.5,0
						c0.3,0,0.5-0.1,0.7-0.3c0.1-0.1,0.1-0.1,0.2-0.2c0.1-0.2,0.2-0.5,0.2-0.8c0-0.5,0-1.2,0-2c0-0.2,0-0.4,0-0.6c0-0.6,0-1.3,0-1.9
						c0-0.7,0-1.4,0-2.2v-1.5v-2.3v-0.8v-2.3c0-0.5,0-1,0-1.5v-2.1c0-0.9,0-1.7,0-2.4v-1.4c0-1.9,0-3.9,0-5.8c0-0.5,0.1-1,0.3-1.4
						c0.3-0.8,0.9-1.4,1.6-1.7c0.5-0.3,1.1-0.4,1.8-0.4c0,0,0,0,0,0c1,0,1.9,0.4,2.6,1c0,0,0,0,0,0c0.1,0.1,0.2,0.3,0.4,0.4
						c0,0.1,0.1,0.1,0.1,0.2c0.1,0.2,0.2,0.3,0.2,0.5c0,0.1,0.1,0.2,0.1,0.3c0.1,0.2,0.1,0.5,0.1,0.7c0,0.1,0,0.3,0,0.4
						c0,0.4,0,0.8,0,1.3V9c0,0.5,0,1,0,1.5c0,0.8,0,1.6,0,2.5c0,7,0,16.2,0,20.9c0,0.6,0.2,1,0.6,1.2c0.2,0.1,0.5,0.2,0.8,0.1
						c0.1,0,0.3-0.1,0.4-0.1c0.3-0.2,0.5-0.4,0.6-0.9c0-0.1,0-0.2,0-0.3c0-0.1,0-0.2,0-0.3v-0.5v-0.6c0-0.4,0-0.8,0-1.3
						c0-0.7,0-1.4,0-2.2v-0.8c0-0.3,0-0.5,0-0.8c0-1.4,0-2.8,0-4.3c0-0.6,0-1.2,0-1.8c0-1.2,0-2.4,0-3.5c0-0.6,0-1.1,0-1.7
						c0-0.6,0-1.1,0-1.6v-1.5c0-0.5,0-1,0-1.4v-1.3V9.9V9.3c0-0.1,0-0.3,0-0.4c0-0.4,0.1-0.7,0.3-1c0-0.1,0.1-0.2,0.1-0.3
						c0.1-0.2,0.2-0.4,0.4-0.6c0.1-0.2,0.3-0.3,0.5-0.5c0.3-0.2,0.6-0.4,0.9-0.5c0.3-0.1,0.7-0.2,1.1-0.3c0.1,0,0.2,0,0.4,0
						c0.3,0,0.5,0,0.7,0.1c0.2,0,0.5,0.1,0.7,0.2c0.1,0,0.2,0.1,0.3,0.1c0.2,0.1,0.4,0.2,0.6,0.4c0.4,0.3,0.7,0.6,0.9,1
						C45.8,7.8,45.9,8,46,8.2c0.1,0.3,0.2,0.7,0.2,1.1c0,0.5,0,1,0,1.6c0,0.3,0,0.6,0,0.9c0,0.9,0,1.8,0,2.8v2v2.1
						c0,7.9,0,17.3,0,22.9v0.5v0.2h0l0.1,2.4c0,0,0.1,0,0.1,0c0.1,0,0.3,0,0.4,0c0.6,0,0.9,0,1.2-0.1c0.1,0,0.1,0,0.2-0.1
						c0.1-0.1,0.3-0.2,0.4-0.3c0.1-0.1,0.1-0.1,0.2-0.2c0.1-0.1,0.2-0.2,0.4-0.4c0.2-0.2,0.4-0.4,0.7-0.7c0.5-0.5,1.1-1,1.6-1.5
						c1-1,2.1-2,3.1-3.1c0.5-0.5,1-1,1.6-1.5c0.3-0.3,0.6-0.5,0.9-0.7c0.3-0.2,0.7-0.3,1.1-0.4c0.2,0,0.5-0.1,0.8-0.1
						c0.1,0,0.3,0,0.4,0c0.3,0,0.5,0.1,0.8,0.1c0.1,0,0.3,0.1,0.4,0.1c0.2,0.1,0.5,0.2,0.7,0.3c0.2,0.1,0.5,0.3,0.7,0.5
						c0.3,0.3,0.5,0.5,0.8,0.8c0.1,0.2,0.2,0.4,0.3,0.6c0.2,0.4,0.3,0.9,0.3,1.4c0,0.8-0.3,1.7-0.8,2.4c-0.1,0.1-0.1,0.2-0.2,0.3
						c-0.1,0.1-0.1,0.2-0.2,0.2c-0.1,0.2-0.3,0.3-0.4,0.5c-1.9,1.9-3.9,3.9-5.8,5.8c-3.7,3.7-7.4,7.3-11.1,11
						c-0.2,0.2-0.3,0.5-0.3,0.7l0,0.3c0,1,1.2,1.5,1.9,0.8c5.7-5.6,11.4-11.3,17.1-16.9c0.3-0.3,0.5-0.5,0.8-0.8
						C66.2,41.2,65.9,37.2,63.2,34.8"/>
				</defs>
				<clipPath id="SVGID_6_">
					<use xlink:href="#SVGID_5_"  style="overflow:visible;"/>
				</clipPath>
				<g class="st2">
					<defs>
						<rect id="SVGID_7_" x="7.6" y="1" width="57.9" height="70"/>
					</defs>
					<clipPath id="SVGID_8_">
						<use xlink:href="#SVGID_7_"  style="overflow:visible;"/>
					</clipPath>
					<rect x="0.8" y="-5.7" class="st3" width="71.3" height="83.5"/>
				</g>
			</g>
		</g>
	</g>
</g>
</svg>
